<?xml version="1.0" encoding="UTF-8"?>
<!DOCTYPE svg PUBLIC "-//W3C//DTD SVG 1.1//EN" "http://www.w3.org/Graphics/SVG/1.1/DTD/svg11.dtd">
<!-- Creator: CorelDRAW (Evaluation Version) -->
<svg xmlns="http://www.w3.org/2000/svg" xml:space="preserve" width="44.4444mm" height="45.8552mm" version="1.1" style="shape-rendering:geometricPrecision; text-rendering:geometricPrecision; image-rendering:optimizeQuality; fill-rule:evenodd; clip-rule:evenodd"
viewBox="0 0 17502.88 18058.47"
 xmlns:xlink="http://www.w3.org/1999/xlink"
 xmlns:xodm="http://www.corel.com/coreldraw/odm/2003">
 <defs>
  <style type="text/css">
   <![CDATA[
    .fil0 {fill:#04A66B}
   ]]>
  </style>
 </defs>
 <g id="Layer_x0020_1">
  <metadata id="CorelCorpID_0Corel-Layer"/>
  <path class="fil0" d="M-0 3750.62l0 10557.24c0,2084.82 1854.2,3750.62 3472.78,3750.62l10279.48 0c2089.82,0 3750.62,-1795.32 3750.62,-3889.52l0 -10279.44c0,-1183.18 -463.32,-2049.22 -1071.37,-2679.24 -544.06,-563.71 -1501.07,-1210.27 -2540.34,-1210.27l-10140.54 0c-2015.43,0 -3750.62,1735.19 -3750.62,3750.62zm3798.98 7864.53c1004.43,481.95 1671.94,163.08 2082.49,-488.84l1529.22 -2428.3 761.01 1118.08 -578.12 1096.07 -467.69 810.12c1010.49,235.42 1611.53,352.58 2370.81,-1077.16l1071.81 -1902.72 1056.37 1853.53 384.76 676.38c351.83,618.45 583.59,904.87 1271.67,489.32 688.07,-415.55 382.71,-944.41 149.1,-1349.09l-724.7 -1255.21 -1190.62 -2062.21c-486.56,-842.8 -1048.22,-1255.52 -1739.64,37.96l-622.35 1077.87 -648.26 -1056.84c-489.16,-797.52 -946.34,-1906.18 -2087.69,3.78l-2618.16 4457.28zm4952.42 -9547.46c3844.78,0 6961.59,3116.81 6961.59,6961.59 0,3844.7 -3116.81,6961.51 -6961.59,6961.51 -3844.7,0 -6961.51,-3116.81 -6961.51,-6961.51 0,-3844.78 3116.81,-6961.59 6961.51,-6961.59z"/>
 </g>
</svg>
